PathFileType	4	(X/Y/Z)
DataRate	CameraRate	NumFrames	NumMarkers	Units	OrigDataRate	OrigDataStartFrame	OrigNumFrames																																																																																																			
200	200	4	38	mm	200	176	200																																																																																																			
Frame#	Time	C7			Sternum			r_AMC1			r_AMC2			r_AMC3			l_AMC1			l_AMC2			l_AMC3			PX			T8			r_humerous			r_elbow_medial			r_elbow_lateral			r_forearm			r_wrist_radius			r_wrist_ulna			r_MCP_1			r_MCP_3			l_humerous			l_elbow_medial			l_elbow_lateral			l_forearm			l_wrist_radius			l_wrist_ulna			l_MCP_1			l_MCP_3			r_ASIS			r_PSIS			l_ASIS			l_PSIS			r_IC			l_IC			ts_r			ai_r			aa_r			ts_l			ai_l			aa_l		
		X1	Y1	Z1	X2	Y2	Z2	X3	Y3	Z3	X4	Y4	Z4	X5	Y5	Z5	X6	Y6	Z6	X7	Y7	Z7	X8	Y8	Z8	X9	Y9	Z9	X10	Y10	Z10	X11	Y11	Z11	X12	Y12	Z12	X13	Y13	Z13	X14	Y14	Z14	X15	Y15	Z15	X16	Y16	Z16	X17	Y17	Z17	X18	Y18	Z18	X19	Y19	Z19	X20	Y20	Z20	X21	Y21	Z21	X22	Y22	Z22	X23	Y23	Z23	X24	Y24	Z24	X25	Y25	Z25	X26	Y26	Z26	X27	Y27	Z27	X28	Y28	Z28	X29	Y29	Z29	X30	Y30	Z30	X31	Y31	Z31	X32	Y32	Z32	X33	Y33	Z33	X34	Y34	Z34	X35	Y35	Z35	X36	Y36	Z36	X37	Y37	Z37	X38	Y38	Z38
																																																																																																										
176	0.875	203.4863	1376.9413	-208.0174	329.7114	1301.5175	-197.2123	201.8365	1322.2054	-41.3794	238.6929	1317.9814	-8.1313	262.3041	1350.2975	-28.8292	229.9359	1327.4149	-373.0266	271.0774	1318.161	-403.1685	294.6862	1351.5226	-369.9486	382.3239	1112.0653	-191.5579	150.3654	1193.5205	-219.8195	297.3382	1125.0781	-5.543	211.9457	992.047	-24.3027	238.2998	998.2024	35.7098	285.3036	839.4037	43.5262	329.3279	776.988	19.63	281.7393	770.3817	38.5343	341.2243	677.2532	32.5612	299.821	690.0539	44.2995	323.7709	1116.2693	-387.855	223.6536	999.6888	-405.5679	262.7542	993.8613	-445.4568	312.4092	841.5378	-439.1394	341.6565	770.6798	-406.1484	305.4608	766.606	-433.7942	356.2726	693.7232	-415.6814	312.9977	691.5961	-439.4684	364.8471	907.2267	-65.4024	177.3515	922.7292	-157.2587	374.7293	895.0303	-327.8685	181.9938	917.1286	-260.9638	277.5115	967.0814	-40.3187	285.3798	940.8982	-366.8283	161.5602	1298.6796	-124.1139	152.586	1198.0929	-117.1615	237.5762	1294.2087	0.069786	176.9679	1306.8811	-292.8387	160.8687	1207.2685	-284.915	256.5083	1290.0221	-404.8871
177	0.88	203.4948	1376.9611	-208.0186	329.6748	1301.4946	-197.1957	201.8441	1322.1996	-41.3777	238.6772	1317.9814	-8.1512	262.2399	1350.3512	-28.7905	229.9617	1327.4185	-373.0593	270.999	1318.2422	-403.1533	294.6802	1351.5265	-369.9316	382.3565	1112.1025	-191.5027	150.3462	1193.5093	-219.7908	297.2851	1125.1719	-5.5223	211.9278	992.0471	-24.3115	239.0575	998.0698	35.219	285.2839	839.4059	43.5477	329.3003	777.0275	19.6191	281.7571	770.3219	38.5302	341.2193	677.2471	32.5772	299.7097	690.0936	44.3018	323.7671	1116.261	-387.8753	223.716	999.8331	-405.5409	262.6611	993.7579	-445.4482	312.4164	841.5375	-439.1245	341.6627	770.6241	-406.1071	305.4887	766.5795	-433.8102	356.249	693.6934	-415.6529	312.961	691.618	-439.4758	364.8589	907.2382	-65.3954	177.3373	922.7495	-157.2607	374.6976	895.0034	-327.8836	182.0155	917.0931	-260.9535	277.5091	967.0737	-40.3297	285.4469	940.8424	-366.8453	161.5664	1298.6887	-124.1245	152.6334	1198.133	-117.1644	237.5249	1294.1808	0.090205	176.9896	1306.8384	-292.8473	160.8917	1207.2494	-284.9202	256.5266	1289.972	-404.8797
178	0.885	203.5156	1376.9719	-208.0044	329.6884	1301.5021	-197.1643	201.8405	1322.2086	-41.3669	238.677	1317.9985	-8.1284	262.2877	1350.2943	-28.8251	229.9697	1327.4283	-373.0423	271.0568	1318.1746	-403.1245	294.4795	1351.5682	-369.4619	382.3355	1112.0878	-191.4873	150.3383	1193.5164	-219.79	297.2915	1125.094	-5.5223	211.9307	992.0569	-24.3285	239.0432	998.0796	35.2409	285.2635	839.4046	43.5746	329.3263	776.9854	19.6225	281.805	770.2862	38.535	341.2193	677.2418	32.5832	299.7286	690.1317	44.359	323.7736	1116.2427	-387.85	223.707	999.8289	-405.5595	262.68	993.7534	-445.4528	312.3802	841.5975	-439.13	340.8582	770.5826	-405.7012	305.4566	766.6223	-433.8276	356.2282	693.679	-415.6313	313.0001	691.6094	-439.4865	364.8873	907.1965	-65.3862	177.3393	922.7333	-157.2511	374.7248	895.0004	-327.8872	181.9957	917.098	-260.9611	277.5565	967.0031	-40.3281	285.3765	940.9218	-366.861	161.5649	1298.7108	-124.1112	152.6322	1198.1563	-117.2194	237.509	1294.2014	0.075875	177.121	1306.9328	-292.8285	160.9918	1207.3587	-284.9214	256.6925	1290.0679	-404.8314
179	0.89	203.5074	1376.9613	-208.0196	329.6843	1301.5103	-197.1424	201.831	1322.203	-41.3664	238.6404	1318.0289	-8.1073	262.2608	1350.3247	-28.8134	229.9721	1327.4302	-373.0422	271.0721	1318.1322	-403.0924	294.5139	1351.1939	-370.9163	382.3475	1112.0892	-191.4821	150.3459	1193.5216	-219.7882	297.2681	1125.1222	-5.4862	211.9225	992.061	-24.3267	239.0445	998.072	35.2144	285.2758	839.3545	43.5773	329.2887	776.9972	19.666	281.7438	770.3187	38.5127	341.2034	677.252	32.5999	299.7415	690.116	44.3468	323.8577	1116.1693	-387.8793	223.7173	999.8514	-405.5807	262.6741	993.7567	-445.4506	312.4368	841.5175	-439.1287	341.6757	770.6603	-406.1552	305.4493	766.6189	-433.8096	356.2319	693.6089	-415.6389	313.0745	691.5068	-439.4984	364.876	907.2043	-65.4009	177.3465	922.7459	-157.2325	374.7211	894.9931	-327.8764	182.0155	917.1311	-260.9454	277.5118	967.1351	-40.3013	285.478	940.8665	-366.9311	161.5379	1298.7168	-124.1175	152.5849	1198.1291	-117.2245	237.4993	1294.218	0.068434	176.957	1306.8261	-292.8371	160.8195	1207.2088	-284.889	256.577	1289.9721	-404.8299
